<?xml version="1.0" encoding="UTF-8"?>
<svg version="1.1" viewBox="0 0 1388 1248" width="1280" height="1280" xmlns="http://www.w3.org/2000/svg">
<path transform="translate(987,110)" d="m0 0h8l10 5 8 9 8 16 36 82 13 29 16 37 13 29 11 26 7 17 2 10-1 11-4 9-7 8-10 5-12 3h-255l-12-4-6-4-5-8-1-3v-14l4-11 6-9 15-15 7-8 12-12-1-3-20-9-29-11-23-6-27-5-23-2-18-1h-17l-28 2-32 5-22 6-20 7-25 10-25 13-19 12-14 10-13 11-10 9-8 7-11 11-7 8-12 14-15 20-12 20-12 22-8 18-11 29-5 17-5 25-3 26v54l3 29 5 26 7 24 7 21 9 21 8 16 10 19 9 14 14 19 13 15 11 12 17 17 11 9 17 13 21 14 19 11 25 12 19 8 26 8 28 7 27 4 16 1h45l17-1 33-5 31-8 26-8 21-9 16-8 22-12 27-18 16-13 11-9 27-27 18-22 26-38 7-8 12-6 11-1 12 2 10 6 7 7 5 10 1 5-1 13-6 15-9 16-10 15-20 28-11 13-9 11-8 8-2 3h-2l-2 4-15 14-11 10-17 13-12 9-15 10-15 9-26 16-25 12-28 11-25 8-36 9-28 5-28 3h-60l-36-4-23-4-38-9-26-8-28-11-24-11-23-12-20-12-23-16-16-13-11-9-10-9-10-10-8-7-14-15-7-8-13-16-14-19-12-18-9-15-15-28-10-22-11-29-8-25-7-30-5-28-4-33-1-14v-46l2-24 5-32 8-37 8-26 14-37 16-33 13-24 22-33 9-12 13-16 9-11 15-16 11-11 8-7 11-10 28-22 20-14 16-10 28-16 27-13 27-11 21-7 38-10 25-5 25-3 9-1 24-1h34l23 1 37 4 34 7 34 9 28 10 47 20 3 1 1-6 11-28 8-16 6-8 8-6z" fill="#477795"/>
<path transform="translate(987,110)" d="m0 0h8l10 5 8 9 8 16 36 82 13 29 16 37 13 29 11 26 7 17 2 10-1 11-4 9-7 8-10 5-12 3h-255l-12-4-6-4-5-8-1-3v-14l4-11 6-9 15-15 7-8 12-12-1-3-20-9-29-11-23-6-27-5-23-2-49-3-12-1-2-2h2l-1-2-6-2h-11l-6 3-3-3-5-1v-4l-5 1-21-7-6-10-1-4 2-7-10-12v-2l-4-2-2-3-9-3-2-1v-4h-6l-2-5-2-1v-2l-3-1-1-4 3-2v-8l5-6 1-6 6-3h2v-2l9-5 11-7h5l3-5 2-3 3-1h7l1-5 11-1 2 3 5-1-1-2 1-2 9-3v-2h7v-2l5-2 1-4-1-2 20-2 24-1h34l23 1 37 4 34 7 34 9 28 10 47 20 3 1 1-6 11-28 8-16 6-8 8-6z" fill="#5B9CBC"/>
<path transform="translate(664,354)" d="m0 0h18l8 4 5 6 2 8-2 9-5 8-5 4-22 6-16 6-19 10-18 12-11 9-14 12-9 9-8 10-11 15-12 21-7 15-8 26-3 14-3 22v28l4 29 7 25 8 19 8 15 12 18 9 11 11 12 8 8 17 13 25 15 18 8 20 6 25 4 9 1h30l24-4 22-6 16-6 14-7 18-12 18-14 10-10 1-2h2l2-5 11-13 11-12 9-6 10-4 4-1h17l14 5 10 8 9 12 5 12 1 12-2 13-7 13-8 10-9 11-9 9-5 6-8 7-13 11-17 11-24 14-15 7-28 11-20 6-25 5-27 3h-27l-25-2-26-5-26-8-29-12-18-10-24-16-10-8-12-11-7-6-7-8-12-13-11-15-13-20-11-21-11-27-8-27-3-15-3-25-1-26 4-40 6-25 6-18 9-21 11-21 8-12 13-19 12-13 9-10 7-7 11-9 13-10 22-14 17-9 19-8 27-9z" fill="#5B9CBC"/>
<path transform="translate(1060,764)" d="m0 0 12 1 12 6 8 8 5 10 1 5-1 13-6 15-9 16-10 15-20 28-11 13-9 11-8 8-2 3h-2l-2 4-15 14-11 10-17 13-12 9-15 10-15 9-26 16-25 12-28 11-25 8-36 9-28 5-28 3h-60v-1l10-1-18-1 2-1v-2l-21-1-11-2-14-3h-8l-4-3-14-2-8-3-6-2-2-2-9-2-9-3-16-7-3-2-9-3-9-6-4-2-5-2-9-4-4-2-3 1-1-2-6-3 1-3-2-1v-4l-2-1-1-5h-2l-6-11-6-5-3-4-2-11 5-10h3l-1-8 3-9 1-2h2v-2h2l-1-7 1-4 7-1 1 1-1-6-1-7v-3h2v2l2 1 3 4v2l6 2 8 6 11 6 2 1v2l9 1 2 3 5 2 2 2 6 2v3l6 1 2 2 5 1 3 3 8 1 6 2 14 4 29 9 7 2 9 2 9 3 23 4h9l3-1h57l17-1 33-5 31-8 26-8 21-9 16-8 22-12 27-18 16-13 11-9 27-27 18-22 26-38 7-8 12-6z" fill="#5C9CBC"/>
<path transform="translate(664,354)" d="m0 0h18l8 4 5 6 2 8-2 9-5 8-5 4-22 6-16 6-19 10-18 12-11 9-14 12-9 9-8 10-11 15-12 21-7 15-8 26-3 14-3 22v28l4 29 7 25 8 19 8 15 12 18 9 11 11 12 8 8 17 13 25 15 18 8 14 5v1h-8l-5-2-9-2-9-4-8-4-5-2v-2l-5-2-7-4-6-4-6-1-1-4-4-2-8-7-1-2-5-3h-2v-2l-5 1-5-3-3-2 1-11-3-2v-2l-3-1-5 2-11 1-3 3h-14l-1 2-5-2-3 1-1 2 4 2 5 3v3l-3 1-7-3 1 6 4-1 1 2 4 2 1 4-5-2-1 8 2 1 3 10 5 6 2 5 3 1 3 3 2 5 2 2 3-2-5-1-1-4 6 1 1 6 4 2 1 4 4 2v2l4 2 4 5 1 2 2 1v2h3l5 5 2 4 10 6 6 4 13 7 2 4 11 4v2h5l3 3 12 5 4 1v2h7l5 3 4 1 7 3 1 3h-8l-25-9-21-9-21-12-19-13-10-8-12-11-7-6-7-8-12-13-11-15-13-20-11-21-11-27-8-27-3-15-3-25-1-26 4-40 6-25 6-18 9-21 11-21 8-12 13-19 12-13 9-10 7-7 11-9 13-10 22-14 17-9 19-8 27-9z" fill="#477795"/>
<path transform="translate(532,165)" d="m0 0h4l-2 4-8 2v2l-9 2v2l-8 4h-4v2l-4 1-5 5-6 3-10 6-4 3h-2l-1 3-7 2-2 4-4 1-1 2-5 1-2 4-4 1h-4l-2 5-3 4-5 1v2h-3l-1 3h-3l-1 3-5 2-2 4-4 4h-2v2l-3 1-3 4h-3l-4 7-5 5-7 8-4 4h-2v2h-2l-1 3h-2l-1 3-6 5h-2l-1 4h-2l-2 5-2 3h-2l-1 4h-2l-1 5h-2l-2 6-4 8-3 7-2 1-3 7-5 6h-3v3h-2l-1 5-6 11v3h-3v5l-6 18-3 7-2 1v9l-5 9-6 6-10 8-4 12-2 7-3 6-1 5-2 4-1 13v5l6 4 4 3-1 5-1 4-1 12 3 1-1 4 1 2v6l1 4v8l3 1-1 5-2 5 4-1 2 12-2 1 2 2-1 5 2 8 3 4h-4v3l6 3 1 3-2 4h-2v-2h-3v2h-2v5l2 1h-2l-1 5-3 8-1 5v3l-3 1 1 3 2-2 1 3 3 3-3 5v4 2l2 1-2 2 1 7-2 2 1 10-1 4 1 5-2 5v19l1 4v11l4 7v9l2 1v12l2 7 1 11 1 2-5-2 1 5 2 1 1-2 3 3-3 1 1 7 2 6 3 2 5 17 1 5h2l4 7 5 8 2 5 2 3v4l2 1 3 7 1 4 4 2 6 10 3 4 2 4 5 5 2 5 4 3v3l4 1 4 7v3h2l3 5 6 5 1 3 3 1v6l-7-6-9-10-11-14-10-13-14-20-12-20-15-28-10-22-11-29-8-25-7-30-5-28-4-33-1-14v-46l2-24 5-32 8-37 8-26 14-37 16-33 13-24 22-33 9-12 13-16 9-11 15-16 11-11 8-7 11-10 28-22 20-14 16-10 28-16z" fill="#3E6988"/>
<path transform="translate(530,325)" d="m0 0 4 1v2l-13 8-14 10-13 11-10 9-8 7-11 11-7 8-12 14-15 20-12 20-12 22-8 18-11 29-5 17-5 25-3 26v54l3 29 5 26 7 24 7 21 9 21 8 16 10 19 9 14 14 19 13 15 6 8-4-1-7-7-7-10-8-8-13-18-3-5-11-19-9-17-4-9-2-4v-3h-2l-2-10-8-18-2-5-1-5h-2l-2-5v-5h-2l-3-12-2-4-3-16-1-8-2-21v-6l2-4-1-1v-23l1-9 1-2-1-8 1-9v-4l2-15 1-8 1-2v-7l2-11 2-6 2-9 1-1 2-10 3-7 1-4 2-1 3-9 7-14 3-7 6-12h2l3-9 3-6h2v-6l5-6h2v-2l9-7 6-9 4-4h2l2-5 4-4h2l1-3 6-5 3-4h2l1-4 4-4h3l1-4h3l1-4 3-1 1-3 5-5 7-6 6-1v-2h2l1-3 4-2 3-1v-3l5-1 1-3h2l1-3 4-1 2 1 1-2z" fill="#406B8A"/>
<path transform="translate(999,120)" d="m0 0 3 1 1 2 4 1 5 9 2 1 3 8 1 3v3h3l1 4h-2l4 5v2l2 1 2 6h2l4 8h2l13 30 18 40 18 42 14 31 11 26 7 17 2 10-1 11-4 9-7 8-4 2-4-3v-2l4-4 2-5 3 1 1-4 1-13-3-10-2-9-5-11-1-7-4-7v-3h-2l-5-11-7-16-3-6-5-9-2-7-4-8-3-5-3-7-6-13v-4h-2l-2-8-2-1-6-10-4-12-5-12-8-16-1-7h-2l-1-6v-2l-5-9-7-11-3-4-3-9-2-2v-3l-4-2z" fill="#60AFCD"/>
<path transform="translate(653,362)" d="m0 0 6 1 6-1 5 1 6-1 7 2 2 4-4-1-1 5h2v2l5-1 1 4-1 2-3 1 1 5-15 5h-4v2l-4 1v-4l-6 4h-4v2l-4 1-9 3h-4l-1 3h-4v-2l4-1v-2l-5-1-3 4h-2l-2-4-4 2-5-1-1-3-3 1-5-3-3 2-2 4-3-1-2 7-8 4-1-6h3l1-2 4-2 3-5 5-2v-3l3-3 8-4 6-1 6-2v3h2l1-4 4-4 10-4v-3l5 2 2-4z" fill="#5B9BBB"/>
<path transform="translate(604,202)" d="m0 0 4 1 1 4h12l10 5 1 5 2 3 1 7-1 3h-3l-1 4-7 5-4-1-1-1h-5l-3 1v-4l-4 2 1-13v-2h-2v-2l-8 1-1-4-2-1v-3l7-2 1-6z" fill="#477795"/>
<path transform="translate(532,165)" d="m0 0h4l-2 4-8 2v2l-9 2v2l-8 4h-4v2l-4 1-5 5-6 3-10 6-4 3h-2l-1 3-7 2-2 4-4 1-1 2-5 1-2 4-4 1h-4l-2 5-3 4-5 1v2h-3l-1 3h-3l-1 3-5 2-2 4-4 4h-2v2l-3 1-3 4-4-1 12-14 28-22 20-14 16-10 28-16z" fill="#416E8D"/>
<path transform="translate(397,739)" d="m0 0 2 3 11 25 10 19 10 17 14 19 9 11 9 10 4 6-4-1-7-7-7-10-8-8-13-18-3-5-11-19-9-17-4-9-2-4v-3h-2v-7z" fill="#416D8C"/>
<path transform="translate(1093,394)" d="m0 0h4l2 7h-2v2l-14 3-11-2h-2-5l-1-2h-2l2-4 6-1 19-1z" fill="#60AFCD"/>
<path transform="translate(631,247)" d="m0 0 4 1v4l-1 2h-2l-1 5 2 1v3l-13-2-5-5v-7l9-1z" fill="#477795"/>
<path transform="translate(445,216)" d="m0 0m-2 1 2 1-4 7-2 3-5 1v2h-3l-1 3h-3l-1 3-5 2-2 4-4 4h-2v2l-3 1-3 4-4-1 12-14 14-11z" fill="#406C8B"/>
<path transform="translate(604,939)" d="m0 0 9 2 24 7 17 4 31 5-3 2h-10l-25-5-15-4-7-2-16-5-5-2z" fill="#4A7D9B"/>
<path transform="translate(1078,840)" d="m0 0 1 3-10 14-11 16-5 7-7 1 3-1 2-5 1-2h2l1-6h2l2-5 3-5 3-3 1-2h2v-3l5-2 1-6z" fill="#60ADCB"/>
<path transform="translate(1064,765)" d="m0 0 4 1 1 1h5v2l5 1 8 6v2l2 1-1 4h-3v-2l-6-1v-4l-8-1-4-3-11-3 1-3h6z" fill="#61B1CF"/>
<path transform="translate(989,394)" d="m0 0 12 2v3l-4 2 6 1v1h-17l-5-1v-2l-5 1-1-3 9-2z" fill="#61B1CF"/>
<path transform="translate(668,788)" d="m0 0 14 1 28 4-4 2h-14l-13-2-5-2-6-2z" fill="#4A7E9C"/>
<path transform="translate(930,702)" d="m0 0h5v2l5 1v2l5 2 4 4v3h2l3 7-1 4-3-5v-2l-3-1-5-6-3-3v-2l-6-2z" fill="#61B1CF"/>
<path transform="translate(647,856)" d="m0 0 6 3 4 1 7 3 1 3h-8l-15-5v-2h2v-2z" fill="#497C9A"/>
<path transform="translate(1062,860)" d="m0 0h2l-1 6-10 14-7 1 3-1 2-5 1-2h2l1-6h2l2-4z" fill="#60AFCD"/>
<path transform="translate(604,939)" d="m0 0 9 2 24 7 4 2-1 1-8-1-7-2-16-5-5-2z" fill="#4C819F"/>
<path transform="translate(598,392)" d="m0 0h2l1 4-4 2-1-1-2 7-8 4-1-6h3l1-2 4-2 3-5z" fill="#5C9CBC"/>
<path transform="translate(904,991)" d="m0 0 1 3-1 4-4-1h-2v3l-4 2-7-1 3-3h6l2-5z" fill="#61B1CF"/>
<path transform="translate(1034,782)" d="m0 0 5 1-1 2-5 4-1 3h-3l-5 7-2 4-2-2 5-9 5-6z" fill="#60AFCE"/>
<path transform="translate(407,937)" d="m0 0 4 2 5 3v2l5 1 6 7 5 4-1 2-16-13-8-7z" fill="#42708F"/>
<path transform="translate(951,875)" d="m0 0h5l-1 3-2 4-4 4h-3l-1 3-6 1v-3l7-3 3-1-1-3 3-2z" fill="#60B0CE"/>
<path transform="translate(1013,898)" d="m0 0 1 2-3 4h-2l-2 5-3 3h-4v-4h3l2-4 6-4z" fill="#61B1CF"/>
<path transform="translate(451,833)" d="m0 0 4 2 9 11 2 3-4-1-7-7-4-6z" fill="#437190"/>
<path transform="translate(1068,765)" d="m0 0 7 1 10 6 5 6h-3l-5-5-4-3-9-3v2l-4-1z" fill="#5C9FBF"/>
<path transform="translate(1042,193)" d="m0 0h2l11 24-1 2-10-19z" fill="#5DA0BF"/>
<path transform="translate(1095,788)" d="m0 0 2 1 1 5v7l-6-5 1-7z" fill="#60ACCB"/>
<path transform="translate(1006,403)" d="m0 0h12l13 1v2h-17l-8-2z" fill="#61B1CF"/>
<path transform="translate(1087,823)" d="m0 0 1 4-5 8-5-1v-2h2l-1-4 5-1z" fill="#60AECC"/>
<path transform="translate(890,921)" d="m0 0 2 1-9 7h-5l1-5 7 1v-2z" fill="#61B1CF"/>
<path transform="translate(550,489)" d="m0 0 1 3-6 11-2-2 1-4 2-3v-4z" fill="#447392"/>
<path transform="translate(1067,249)" d="m0 0h2l3 9-1 1v5l-3-3-1-10z" fill="#5C9EBD"/>
<path transform="translate(985,916)" d="m0 0 1 4-5 4-6-1 4-4h5z" fill="#61B1CF"/>
<path transform="translate(997,832)" d="m0 0 3 3-4 2-5 5-2-1 2-5z" fill="#5FAAC9"/>
<path transform="translate(523,563)" d="m0 0h2v9l-1 4h-2v-11z" fill="#42708F"/>
<path transform="translate(385,916)" d="m0 0 4 2 5 5 4 3-1 3-8-8-4-3z" fill="#416D8C"/>
<path transform="translate(542,503)" d="m0 0 1 4-4 7-3-1 2-1v-6z" fill="#437190"/>
<path transform="translate(1078,840)" d="m0 0 1 3-5 7h-1l1-9z" fill="#5FABC9"/>
<path transform="translate(1027,790)" d="m0 0 2 2-5 7-2 4-2-2 5-9z" fill="#61B1CF"/>
<path transform="translate(604,939)" d="m0 0 9 2 3 1-1 3-11-4z" fill="#4B7F9D"/>
<path transform="translate(934,893)" d="m0 0 1 2-2 3h-2v2l-5 1 3-6z" fill="#61B1CF"/>
<path transform="translate(551,314)" d="m0 0h4v2l-7 4-4-1h2v-2h2v-2z" fill="#437190"/>
<path transform="translate(513,456)" d="m0 0h2l-2 4-4 5-3-1 4-6z" fill="#406D8C"/>
<path transform="translate(1071,266)" d="m0 0h5l3 6v2h-3l-1-4h-2v-3z" fill="#5DA0C0"/>
</svg>
